<svg xmlns="http://www.w3.org/2000/svg" width="42" height="22" xmlns:xlink="http://www.w3.org/1999/xlink">
  <use fill="url(#b)" fill-opacity=".5" xlink:href="#a" transform="rotate(-90 13.32 6.25)"/>
  <use fill="url(#d)" fill-opacity=".5" xlink:href="#c" transform="rotate(-90 7.64 7.64)"/>
  <g transform="translate(-1195 1284)">
    <use fill="#58BAFC" xlink:href="#e" transform="rotate(-90 -23.39 -1239.61)"/>
    <mask id="f">
      <path fill="#fff" d="M1215.21-1262v-22h22v22z"/>
      <use xlink:href="#e" transform="rotate(-90 -23.39 -1239.61)"/>
    </mask>
    <use fill="#FFF" xlink:href="#g" transform="rotate(-90 -23.39 -1239.61)" mask="url(#f)"/>
  </g>
  <g transform="translate(-1195 1284)">
    <use fill="#75C7FF" xlink:href="#h" transform="rotate(-90 -23.42 -1243.87)"/>
    <mask id="i">
      <path fill="#fff" d="M1219.45-1266.29v-14h14v14z"/>
      <use xlink:href="#h" transform="rotate(-90 -23.42 -1243.87)"/>
    </mask>
    <use fill="#FFF" fill-opacity=".6" xlink:href="#j" transform="rotate(-90 -23.42 -1243.87)" mask="url(#i)"/>
  </g>
  <defs>
    <linearGradient id="b" x2="1" gradientUnits="userSpaceOnUse" gradientTransform="matrix(0 -33.93 17.14 0 0 33.93)">
      <stop offset="0" stop-color="#58BAFC"/>
      <stop offset="1" stop-color="#58BAFC" stop-opacity="0"/>
    </linearGradient>
    <linearGradient id="d" x2="1" gradientUnits="userSpaceOnUse" gradientTransform="matrix(0 -41 8.57 0 0 41)">
      <stop offset="0" stop-color="#58BAFC"/>
      <stop offset="1" stop-color="#58BAFC" stop-opacity="0"/>
    </linearGradient>
    <path id="a" d="M0 0h17.143v25.36c0 4.733-3.838 8.57-8.572 8.57C3.84 33.93 0 30.094 0 25.36V0z"/>
    <path id="c" d="M0 0h8.57v36.714C8.57 39.08 6.654 41 4.287 41S0 39.08 0 36.714V0z"/>
    <path id="e" d="M20 9.897c0 5.465-4.477 9.896-10 9.896S0 15.363 0 9.897C0 4.43 4.477 0 10 0s10 4.43 10 9.897z"/>
    <path id="g" d="M19 9.897c0 4.903-4.02 8.896-9 8.896v2c6.065 0 11-4.87 11-10.896h-2zm-9 8.896c-4.98 0-9-3.993-9-8.896h-2c0 6.027 4.935 10.896 11 10.896v-2zM1 9.897C1 4.993 5.02 1 10 1v-2C3.935-1-1 3.87-1 9.897h2zM10 1c4.98 0 9 3.993 9 8.897h2C21 3.87 16.065-1 10-1v2z"/>
    <path id="h" d="M11.43 5.655c0 3.123-2.56 5.655-5.716 5.655S0 8.778 0 5.655 2.558 0 5.714 0C8.87 0 11.43 2.532 11.43 5.655z"/>
    <path id="j" d="M10.43 5.655c0 2.56-2.102 4.655-4.716 4.655v2c3.7 0 6.715-2.97 6.715-6.655h-2zM5.713 10.31C3.1 10.31 1 8.216 1 5.655h-2c0 3.686 3.016 6.655 6.714 6.655v-2zM1 5.655C1 3.095 3.1 1 5.714 1v-2C2.016-1-1 1.97-1 5.655h2zM5.714 1c2.614 0 4.715 2.094 4.715 4.655h2C12.43 1.97 9.412-1 5.713-1v2z"/>
  </defs>
</svg>